# Aspose.3D Wavefront OBJ Exporter
# Copyright 2004-2021 Aspose Pty Ltd.
# File created: 07/07/2021 15:14:15

mtllib material.lib

#
# object instance_0
#

v -25.57488985778309856 -58.03638662226747158 -8.46146338454490632
v 19.4822992223736584 -84.9563169702421704 -10.20604227176411528
v 19.45830702237365632 -57.96832657024216928 -9.40118307176411608
v -25.55089765778309992 -85.02437702226747262 -9.26632258454490552
v -25.55089765778309992 -85.02437702226747262 -9.26632258454490552
v -25.57488985778309856 -58.03638662226747158 -8.46146338454490632
v 19.4822992223736584 -84.9563169702421704 -10.20604227176411528
v 19.45830702237365632 -57.96832657024216928 -9.40118307176411608
v -25.57488985778309856 -58.03638662226747158 -8.46146338454490632
v -7.1685913577831002 -57.52405724726747136 -25.09187988454490892
v -27.19974045778310056 -55.72064174726747152 -86.15998510954490542
v 19.45830702237365632 -57.96832657024216928 -9.40118307176411608
v 19.11870802237365652 -57.48432844524216992 -25.64042394676411616
v -8.45384295778309888 -55.69231049726747072 -86.55116073454490792
v -7.1685913577831002 -57.52405724726747136 -25.09187988454490892
v -27.19974045778310056 -55.72064174726747152 -86.15998510954490542
v -8.45384295778309888 -55.69231049726747072 -86.55116073454490792
v 19.11870802237365652 -57.48432844524216992 -25.64042394676411616
v 19.45830702237365632 -57.96832657024216928 -9.40118307176411608
v -25.57488985778309856 -58.03638662226747158 -8.46146338454490632
v -25.55089765778309992 -85.02437702226747262 -9.26632258454490552
v -27.19974045778310056 -55.72064174726747152 -86.15998510954490542
v -27.17574825778309844 -82.70863214726746552 -86.96484430954490112
v -25.57488985778309856 -58.03638662226747158 -8.46146338454490632
v -25.57488985778309856 -58.03638662226747158 -8.46146338454490632
v -25.55089765778309992 -85.02437702226747262 -9.26632258454490552
v -27.19974045778310056 -55.72064174726747152 -86.15998510954490542
v -27.17574825778309844 -82.70863214726746552 -86.96484430954490112
v -8.42985075778310032 -82.68030089726747176 -87.35601993454491776
v -25.55089765778309992 -85.02437702226747262 -9.26632258454490552
v -27.17574825778309844 -82.70863214726746552 -86.96484430954490112
v -7.14459915778310162 -84.51204764726746536 -25.89673908454490464
v 19.4822992223736584 -84.9563169702421704 -10.20604227176411528
v 19.14270022237365864 -84.47231884524217096 -26.44528314676411896
v 19.14270022237365864 -84.47231884524217096 -26.44528314676411896
v -7.14459915778310162 -84.51204764726746536 -25.89673908454490464
v 19.4822992223736584 -84.9563169702421704 -10.20604227176411528
v -25.55089765778309992 -85.02437702226747262 -9.26632258454490552
v -8.42985075778310032 -82.68030089726747176 -87.35601993454491776
v -27.17574825778309844 -82.70863214726746552 -86.96484430954490112
v 19.11870802237365652 -57.48432844524216992 -25.64042394676411616
v 19.4822992223736584 -84.9563169702421704 -10.20604227176411528
v 19.14270022237365864 -84.47231884524217096 -26.44528314676411896
v 19.45830702237365632 -57.96832657024216928 -9.40118307176411608
v 19.45830702237365632 -57.96832657024216928 -9.40118307176411608
v 19.11870802237365652 -57.48432844524216992 -25.64042394676411616
v 19.4822992223736584 -84.9563169702421704 -10.20604227176411528
v 19.14270022237365864 -84.47231884524217096 -26.44528314676411896
v 19.14270022237365864 -84.47231884524217096 -26.44528314676411896
v -7.1685913577831002 -57.52405724726747136 -25.09187988454490892
v 19.11870802237365652 -57.48432844524216992 -25.64042394676411616
v -7.14459915778310162 -84.51204764726746536 -25.89673908454490464
v -7.14459915778310162 -84.51204764726746536 -25.89673908454490464
v 19.14270022237365864 -84.47231884524217096 -26.44528314676411896
v -7.1685913577831002 -57.52405724726747136 -25.09187988454490892
v 19.11870802237365652 -57.48432844524216992 -25.64042394676411616
v -8.45384295778309888 -55.69231049726747072 -86.55116073454490792
v -7.14459915778310162 -84.51204764726746536 -25.89673908454490464
v -8.42985075778310032 -82.68030089726747176 -87.35601993454491776
v -7.1685913577831002 -57.52405724726747136 -25.09187988454490892
v -7.1685913577831002 -57.52405724726747136 -25.09187988454490892
v -8.45384295778309888 -55.69231049726747072 -86.55116073454490792
v -7.14459915778310162 -84.51204764726746536 -25.89673908454490464
v -8.42985075778310032 -82.68030089726747176 -87.35601993454491776
v -8.42985075778310032 -82.68030089726747176 -87.35601993454491776
v -27.19974045778310056 -55.72064174726747152 -86.15998510954490542
v -8.45384295778309888 -55.69231049726747072 -86.55116073454490792
v -27.17574825778309844 -82.70863214726746552 -86.96484430954490112
v -27.17574825778309844 -82.70863214726746552 -86.96484430954490112
v -8.42985075778310032 -82.68030089726747176 -87.35601993454491776
v -27.19974045778310056 -55.72064174726747152 -86.15998510954490542
v -8.45384295778309888 -55.69231049726747072 -86.55116073454490792
# 72 vertices

vn 0.0208984627184118 -0.02978449844512987 0.99933784973270128
vn 0.0208984627184118 -0.02978449844512987 0.99933784973270128
vn 0.0208984627184118 -0.02978449844512987 0.99933784973270128
vn 0.0208984627184118 -0.02978449844512987 0.99933784973270128
vn -0.0208984627184118 0.02978449844512987 -0.99933784973270128
vn -0.0208984627184118 0.02978449844512987 -0.99933784973270128
vn -0.0208984627184118 0.02978449844512987 -0.99933784973270128
vn -0.0208984627184118 0.02978449844512987 -0.99933784973270128
vn -0.00088861444267894 0.99955520134274416 0.02980955942375618
vn -0.00088861444267894 0.99955520134274416 0.02980955942375618
vn -0.00088861444267894 0.99955520134274416 0.02980955942375618
vn -0.00088861444267894 0.99955520134274416 0.02980955942375618
vn -0.00088861444267894 0.99955520134274416 0.02980955942375618
vn -0.00088861444267894 0.99955520134274416 0.02980955942375618
vn 0.00088861444267894 -0.99955520134274416 -0.02980955942375618
vn 0.00088861444267894 -0.99955520134274416 -0.02980955942375618
vn 0.00088861444267894 -0.99955520134274416 -0.02980955942375618
vn 0.00088861444267894 -0.99955520134274416 -0.02980955942375618
vn 0.00088861444267894 -0.99955520134274416 -0.02980955942375618
vn 0.00088861444267894 -0.99955520134274416 -0.02980955942375618
vn -0.99978120837530208 -0.00151100001265785 0.02086270017476965
vn -0.99978120837530208 -0.00151100001265785 0.02086270017476965
vn -0.99978120837530208 -0.00151100001265785 0.02086270017476965
vn -0.99978120837530208 -0.00151100001265785 0.02086270017476965
vn 0.99978120837530208 0.00151100001265785 -0.02086270017476965
vn 0.99978120837530208 0.00151100001265785 -0.02086270017476965
vn 0.99978120837530208 0.00151100001265785 -0.02086270017476965
vn 0.99978120837530208 0.00151100001265785 -0.02086270017476965
vn 0.00088861444267894 -0.99955520134274416 -0.02980955942375618
vn 0.00088861444267894 -0.99955520134274416 -0.02980955942375618
vn 0.00088861444267894 -0.99955520134274416 -0.02980955942375618
vn 0.00088861444267894 -0.99955520134274416 -0.02980955942375618
vn 0.00088861444267894 -0.99955520134274416 -0.02980955942375618
vn 0.00088861444267894 -0.99955520134274416 -0.02980955942375618
vn -0.00088861444267894 0.99955520134274416 0.02980955942375618
vn -0.00088861444267894 0.99955520134274416 0.02980955942375618
vn -0.00088861444267894 0.99955520134274416 0.02980955942375618
vn -0.00088861444267894 0.99955520134274416 0.02980955942375618
vn -0.00088861444267894 0.99955520134274416 0.02980955942375618
vn -0.00088861444267894 0.99955520134274416 0.02980955942375618
vn 0.99978120837530208 0.00151100001265785 -0.02086270017476965
vn 0.99978120837530208 0.00151100001265785 -0.02086270017476965
vn 0.99978120837530208 0.00151100001265785 -0.02086270017476965
vn 0.99978120837530208 0.00151100001265785 -0.02086270017476965
vn -0.99978120837530208 -0.00151100001265785 0.02086270017476965
vn -0.99978120837530208 -0.00151100001265785 0.02086270017476965
vn -0.99978120837530208 -0.00151100001265785 0.02086270017476965
vn -0.99978120837530208 -0.00151100001265785 0.02086270017476965
vn -0.0208984627184118 0.02978449844512987 -0.99933784973270128
vn -0.0208984627184118 0.02978449844512987 -0.99933784973270128
vn -0.0208984627184118 0.02978449844512987 -0.99933784973270128
vn -0.0208984627184118 0.02978449844512987 -0.99933784973270128
vn 0.0208984627184118 -0.02978449844512987 0.99933784973270128
vn 0.0208984627184118 -0.02978449844512987 0.99933784973270128
vn 0.0208984627184118 -0.02978449844512987 0.99933784973270128
vn 0.0208984627184118 -0.02978449844512987 0.99933784973270128
vn 0.99978120837530208 0.00151100001265785 -0.02086270017476965
vn 0.99978120837530208 0.00151100001265785 -0.02086270017476965
vn 0.99978120837530208 0.00151100001265785 -0.02086270017476965
vn 0.99978120837530208 0.00151100001265785 -0.02086270017476965
vn -0.99978120837530208 -0.00151100001265785 0.02086270017476965
vn -0.99978120837530208 -0.00151100001265785 0.02086270017476965
vn -0.99978120837530208 -0.00151100001265785 0.02086270017476965
vn -0.99978120837530208 -0.00151100001265785 0.02086270017476965
vn -0.0208984627184118 0.02978449844512987 -0.99933784973270128
vn -0.0208984627184118 0.02978449844512987 -0.99933784973270128
vn -0.0208984627184118 0.02978449844512987 -0.99933784973270128
vn -0.0208984627184118 0.02978449844512987 -0.99933784973270128
vn 0.0208984627184118 -0.02978449844512987 0.99933784973270128
vn 0.0208984627184118 -0.02978449844512987 0.99933784973270128
vn 0.0208984627184118 -0.02978449844512987 0.99933784973270128
vn 0.0208984627184118 -0.02978449844512987 0.99933784973270128
# 72 vertex normals

g instance_0
usemtl material_0
s 1
f 1//1 2//2 3//3
f 2//2 1//1 4//4
f 5//5 6//6 7//7
f 8//8 7//7 6//6
f 9//9 10//10 11//11
f 10//10 9//9 12//12
f 10//10 12//12 13//13
f 14//14 11//11 10//10
f 15//15 16//16 17//17
f 18//18 19//19 15//15
f 19//19 20//20 15//15
f 16//16 15//15 20//20
f 21//21 22//22 23//23
f 22//22 21//21 24//24
f 25//25 26//26 27//27
f 28//28 27//27 26//26
f 29//29 30//30 31//31
f 30//30 29//29 32//32
f 30//30 32//32 33//33
f 33//33 32//32 34//34
f 35//35 36//36 37//37
f 37//37 36//36 38//38
f 36//36 39//39 38//38
f 40//40 38//38 39//39
f 41//41 42//42 43//43
f 42//42 41//41 44//44
f 45//45 46//46 47//47
f 48//48 47//47 46//46
f 49//49 50//50 51//51
f 50//50 49//49 52//52
f 53//53 54//54 55//55
f 56//56 55//55 54//54
f 57//57 58//58 59//59
f 58//58 57//57 60//60
f 61//61 62//62 63//63
f 64//64 63//63 62//62
f 65//65 66//66 67//67
f 66//66 65//65 68//68
f 69//69 70//70 71//71
f 72//72 71//71 70//70
#40 polygons

