# Blender v2.93.1 OBJ File: ''
# www.blender.org
mtllib cubicles_robot_blender.mtl
o instance_0_ID3.002
v -25.574890 -8.461466 58.036388
v 19.482298 -10.206041 84.956322
v 19.458307 -9.401184 57.968327
v -25.550896 -9.266323 85.024384
v -25.550896 -9.266323 85.024384
v -25.574890 -8.461466 58.036388
v 19.482298 -10.206041 84.956322
v 19.458307 -9.401184 57.968327
v -25.574890 -8.461466 58.036388
v -7.168592 -25.091881 57.524059
v -27.199741 -86.159988 55.720642
v 19.458307 -9.401184 57.968327
v 19.118708 -25.640423 57.484329
v -8.453846 -86.551163 55.692310
v -7.168592 -25.091881 57.524059
v -27.199741 -86.159988 55.720642
v -8.453846 -86.551163 55.692310
v 19.118708 -25.640423 57.484329
v 19.458307 -9.401184 57.968327
v -25.574890 -8.461466 58.036388
v -25.550896 -9.266323 85.024384
v -27.199741 -86.159988 55.720642
v -27.175749 -86.964844 82.708633
v -25.574890 -8.461466 58.036388
v -25.574890 -8.461466 58.036388
v -25.550896 -9.266323 85.024384
v -27.199741 -86.159988 55.720642
v -27.175749 -86.964844 82.708633
v -8.429852 -87.356018 82.680305
v -25.550896 -9.266323 85.024384
v -27.175749 -86.964844 82.708633
v -7.144599 -25.896738 84.512054
v 19.482298 -10.206041 84.956322
v 19.142698 -26.445282 84.472321
v 19.142698 -26.445282 84.472321
v -7.144599 -25.896738 84.512054
v 19.482298 -10.206041 84.956322
v -25.550896 -9.266323 85.024384
v -8.429852 -87.356018 82.680305
v -27.175749 -86.964844 82.708633
v 19.118708 -25.640423 57.484329
v 19.482298 -10.206041 84.956322
v 19.142698 -26.445282 84.472321
v 19.458307 -9.401184 57.968327
v 19.458307 -9.401184 57.968327
v 19.118708 -25.640423 57.484329
v 19.482298 -10.206041 84.956322
v 19.142698 -26.445282 84.472321
v 19.142698 -26.445282 84.472321
v -7.168592 -25.091881 57.524059
v 19.118708 -25.640423 57.484329
v -7.144599 -25.896738 84.512054
v -7.144599 -25.896738 84.512054
v 19.142698 -26.445282 84.472321
v -7.168592 -25.091881 57.524059
v 19.118708 -25.640423 57.484329
v -8.453846 -86.551163 55.692310
v -7.144599 -25.896738 84.512054
v -8.429852 -87.356018 82.680305
v -7.168592 -25.091881 57.524059
v -7.168592 -25.091881 57.524059
v -8.453846 -86.551163 55.692310
v -7.144599 -25.896738 84.512054
v -8.429852 -87.356018 82.680305
v -8.429852 -87.356018 82.680305
v -27.199741 -86.159988 55.720642
v -8.453846 -86.551163 55.692310
v -27.175749 -86.964844 82.708633
v -27.175749 -86.964844 82.708633
v -8.429852 -87.356018 82.680305
v -27.199741 -86.159988 55.720642
v -8.453846 -86.551163 55.692310
vn 0.0209 0.9993 0.0298
vn -0.0209 -0.9993 -0.0298
vn -0.0009 0.0298 -0.9996
vn 0.0009 -0.0298 0.9996
vn -0.9998 0.0209 0.0015
vn 0.9998 -0.0209 -0.0015
usemtl material_0.002
s off
f 1//1 2//1 3//1
f 2//1 1//1 4//1
f 5//2 6//2 7//2
f 8//2 7//2 6//2
f 9//3 10//3 11//3
f 10//3 9//3 12//3
f 10//3 12//3 13//3
f 14//3 11//3 10//3
f 15//4 16//4 17//4
f 18//4 19//4 15//4
f 19//4 20//4 15//4
f 16//4 15//4 20//4
f 21//5 22//5 23//5
f 22//5 21//5 24//5
f 25//6 26//6 27//6
f 28//6 27//6 26//6
f 29//4 30//4 31//4
f 30//4 29//4 32//4
f 30//4 32//4 33//4
f 33//4 32//4 34//4
f 35//3 36//3 37//3
f 37//3 36//3 38//3
f 36//3 39//3 38//3
f 40//3 38//3 39//3
f 41//6 42//6 43//6
f 42//6 41//6 44//6
f 45//5 46//5 47//5
f 48//5 47//5 46//5
f 49//2 50//2 51//2
f 50//2 49//2 52//2
f 53//1 54//1 55//1
f 56//1 55//1 54//1
f 57//6 58//6 59//6
f 58//6 57//6 60//6
f 61//5 62//5 63//5
f 64//5 63//5 62//5
f 65//2 66//2 67//2
f 66//2 65//2 68//2
f 69//1 70//1 71//1
f 72//1 71//1 70//1
