# Blender v2.93.1 OBJ File: ''
# www.blender.org
mtllib Barriers_easy_robot_blender.mtl
o instance_0_ID4.002
v 23.618328 -131.992889 -15.892498
v 58.002327 -142.410767 -15.834076
v 23.618328 -142.410767 -15.892498
v 58.002327 -131.992889 -15.834076
v 58.002327 -131.992889 -15.834076
v 23.618328 -131.992889 -15.892498
v 58.002327 -142.410767 -15.834076
v 23.618328 -142.410767 -15.892498
v 23.618328 -131.992889 -15.892498
v 23.592846 -142.410767 -0.895418
v 23.592846 -131.992889 -0.895418
v 23.618328 -142.410767 -15.892498
v 23.618328 -142.410767 -15.892498
v 23.618328 -131.992889 -15.892498
v 23.592846 -142.410767 -0.895418
v 23.592846 -131.992889 -0.895418
v 57.976845 -131.992889 -0.836994
v 23.618328 -131.992889 -15.892498
v 23.592846 -131.992889 -0.895418
v 58.002327 -131.992889 -15.834076
v 58.002327 -131.992889 -15.834076
v 57.976845 -131.992889 -0.836994
v 23.618328 -131.992889 -15.892498
v 23.592846 -131.992889 -0.895418
v 58.002327 -142.410767 -15.834076
v 57.976845 -131.992889 -0.836994
v 57.976845 -142.410767 -0.836994
v 58.002327 -131.992889 -15.834076
v 58.002327 -131.992889 -15.834076
v 58.002327 -142.410767 -15.834076
v 57.976845 -131.992889 -0.836994
v 57.976845 -142.410767 -0.836994
v 23.618328 -142.410767 -15.892498
v 57.976845 -142.410767 -0.836994
v 23.592846 -142.410767 -0.895418
v 58.002327 -142.410767 -15.834076
v 58.002327 -142.410767 -15.834076
v 23.618328 -142.410767 -15.892498
v 57.976845 -142.410767 -0.836994
v 23.592846 -142.410767 -0.895418
v 57.976845 -131.992889 -0.836994
v 23.592846 -142.410767 -0.895418
v 57.976845 -142.410767 -0.836994
v 23.592846 -131.992889 -0.895418
v 23.592846 -131.992889 -0.895418
v 57.976845 -131.992889 -0.836994
v 23.592846 -142.410767 -0.895418
v 57.976845 -142.410767 -0.836994
vn 0.0017 0.0000 -1.0000
vn -1.0000 0.0000 -0.0017
vn 0.0000 1.0000 -0.0000
vn 1.0000 0.0000 0.0017
vn 0.0000 -1.0000 -0.0000
vn -0.0017 0.0000 1.0000
usemtl (null)
s off
f 1//1 2//1 3//1
f 2//1 1//1 4//1
f 9//2 10//2 11//2
f 10//2 9//2 12//2
f 17//3 18//3 19//3
f 18//3 17//3 20//3
f 25//4 26//4 27//4
f 26//4 25//4 28//4
f 33//5 34//5 35//5
f 34//5 33//5 36//5
f 41//6 42//6 43//6
f 42//6 41//6 44//6
f 5//6 6//6 7//6
f 8//6 7//6 6//6
f 13//4 14//4 15//4
f 16//4 15//4 14//4
f 21//5 22//5 23//5
f 24//5 23//5 22//5
f 29//2 30//2 31//2
f 32//2 31//2 30//2
f 37//3 38//3 39//3
f 40//3 39//3 38//3
f 45//1 46//1 47//1
f 48//1 47//1 46//1
o instance_0.001_ID14.001
v 33.922707 -186.905090 -15.874990
v 33.897224 -186.785797 -0.877909
v 33.897224 -186.905090 -0.877909
v 33.922707 -186.785797 -15.874990
v 33.922707 -186.785797 -15.874990
v 33.922707 -186.905090 -15.874990
v 33.897224 -186.785797 -0.877909
v 33.897224 -186.905090 -0.877909
v 33.897224 -186.785797 -0.877909
v 23.660791 -186.905090 -0.895302
v 33.897224 -186.905090 -0.877909
v 23.660791 -186.785797 -0.895302
v 23.660791 -186.785797 -0.895302
v 33.897224 -186.785797 -0.877909
v 23.660791 -186.905090 -0.895302
v 33.897224 -186.905090 -0.877909
v 23.593466 -186.905090 -15.892542
v 23.660791 -186.905090 -0.895302
v 23.567984 -186.905090 -0.895460
v 23.686274 -186.905090 -15.892384
v 33.897224 -186.905090 -0.877909
v 33.922707 -186.905090 -15.874990
v 33.922707 -186.905090 -15.874990
v 23.686274 -186.905090 -15.892384
v 33.897224 -186.905090 -0.877909
v 23.660791 -186.905090 -0.895302
v 23.593466 -186.905090 -15.892542
v 23.567984 -186.905090 -0.895460
v 23.686274 -186.785797 -15.892384
v 33.922707 -186.905090 -15.874990
v 23.686274 -186.905090 -15.892384
v 33.922707 -186.785797 -15.874990
v 33.922707 -186.785797 -15.874990
v 23.686274 -186.785797 -15.892384
v 33.922707 -186.905090 -15.874990
v 23.686274 -186.905090 -15.892384
v 33.897224 -186.785797 -0.877909
v 34.011326 -142.583542 -15.874839
v 33.985840 -142.583542 -0.877758
v 33.922707 -186.785797 -15.874990
v 33.922707 -186.785797 -15.874990
v 33.897224 -186.785797 -0.877909
v 34.011326 -142.583542 -15.874839
v 33.985840 -142.583542 -0.877758
v 33.985840 -142.583542 -0.877758
v 23.660791 -186.785797 -0.895302
v 33.897224 -186.785797 -0.877909
v 23.567984 -186.905090 -0.895460
v 23.660791 -186.905090 -0.895302
v 23.567984 -142.583542 -0.895460
v 33.985840 -142.583542 -0.877758
v 23.660791 -186.785797 -0.895302
v 23.567984 -142.583542 -0.895460
v 23.567984 -186.905090 -0.895460
v 23.660791 -186.905090 -0.895302
v 33.897224 -186.785797 -0.877909
v 23.593466 -142.583542 -15.892542
v 23.567984 -186.905090 -0.895460
v 23.567984 -142.583542 -0.895460
v 23.593466 -186.905090 -15.892542
v 23.593466 -186.905090 -15.892542
v 23.593466 -142.583542 -15.892542
v 23.567984 -186.905090 -0.895460
v 23.567984 -142.583542 -0.895460
v 23.593466 -142.583542 -15.892542
v 23.686274 -186.905090 -15.892384
v 23.593466 -186.905090 -15.892542
v 23.686274 -186.785797 -15.892384
v 33.922707 -186.785797 -15.874990
v 34.011326 -142.583542 -15.874839
v 34.011326 -142.583542 -15.874839
v 23.593466 -142.583542 -15.892542
v 33.922707 -186.785797 -15.874990
v 23.686274 -186.785797 -15.892384
v 23.686274 -186.905090 -15.892384
v 23.593466 -186.905090 -15.892542
v 33.985840 -142.583542 -0.877758
v 23.593466 -142.583542 -15.892542
v 23.567984 -142.583542 -0.895460
v 34.011326 -142.583542 -15.874839
v 34.011326 -142.583542 -15.874839
v 33.985840 -142.583542 -0.877758
v 23.593466 -142.583542 -15.892542
v 23.567984 -142.583542 -0.895460
vn 1.0000 0.0000 0.0017
vn -0.0017 0.0000 1.0000
vn 0.0000 -1.0000 0.0000
vn 0.0017 0.0000 -1.0000
vn 1.0000 -0.0020 0.0017
vn -1.0000 0.0000 -0.0017
vn 0.0000 0.0000 -1.0000
vn 0.0000 1.0000 -0.0000
vn -1.0000 0.0020 -0.0017
vn 0.0000 0.0000 1.0000
usemtl (null)
s off
f 49//7 50//7 51//7
f 50//7 49//7 52//7
f 57//8 58//8 59//8
f 58//8 57//8 60//8
f 65//9 66//9 67//9
f 66//9 65//9 68//9
f 66//9 68//9 69//9
f 69//9 68//9 70//9
f 77//10 78//10 79//10
f 78//10 77//10 80//10
f 85//11 86//11 87//11
f 86//11 85//11 88//11
f 93//8 94//8 95//8
f 94//8 96//8 97//8
f 96//8 94//8 98//8
f 98//8 94//8 93//8
f 105//12 106//12 107//12
f 106//12 105//12 108//12
f 113//10 114//10 115//10
f 114//13 113//13 116//13
f 116//10 113//10 117//10
f 117//10 113//10 118//10
f 125//14 126//14 127//14
f 126//14 125//14 128//14
f 53//12 54//12 55//12
f 56//12 55//12 54//12
f 61//10 62//10 63//10
f 64//10 63//10 62//10
f 71//14 72//14 73//14
f 73//14 72//14 74//14
f 72//14 75//14 74//14
f 76//14 74//14 75//14
f 81//8 82//8 83//8
f 84//8 83//8 82//8
f 89//15 90//15 91//15
f 92//15 91//15 90//15
f 99//10 100//10 101//10
f 101//10 100//10 102//10
f 103//10 102//10 100//10
f 104//10 100//10 99//10
f 109//7 110//7 111//7
f 112//7 111//7 110//7
f 119//8 120//8 121//8
f 121//8 120//8 122//8
f 122//16 120//16 123//16
f 124//8 123//8 120//8
f 129//9 130//9 131//9
f 132//9 131//9 130//9
o instance_0.002_ID20.001
v 23.618328 -186.971771 -15.904498
v 58.002327 -197.389648 -15.846076
v 23.618328 -197.389648 -15.904498
v 58.002327 -186.971771 -15.846076
v 58.002327 -186.971771 -15.846076
v 23.618328 -186.971771 -15.904498
v 58.002327 -197.389648 -15.846076
v 23.618328 -197.389648 -15.904498
v 23.618328 -186.971771 -15.904498
v 23.592846 -197.389648 -0.907418
v 23.592846 -186.971771 -0.907418
v 23.618328 -197.389648 -15.904498
v 23.618328 -197.389648 -15.904498
v 23.618328 -186.971771 -15.904498
v 23.592846 -197.389648 -0.907418
v 23.592846 -186.971771 -0.907418
v 57.976845 -186.971771 -0.848994
v 23.618328 -186.971771 -15.904498
v 23.592846 -186.971771 -0.907418
v 58.002327 -186.971771 -15.846076
v 58.002327 -186.971771 -15.846076
v 57.976845 -186.971771 -0.848994
v 23.618328 -186.971771 -15.904498
v 23.592846 -186.971771 -0.907418
v 58.002327 -197.389648 -15.846076
v 57.976845 -186.971771 -0.848994
v 57.976845 -197.389648 -0.848994
v 58.002327 -186.971771 -15.846076
v 58.002327 -186.971771 -15.846076
v 58.002327 -197.389648 -15.846076
v 57.976845 -186.971771 -0.848994
v 57.976845 -197.389648 -0.848994
v 23.618328 -197.389648 -15.904498
v 57.976845 -197.389648 -0.848994
v 23.592846 -197.389648 -0.907418
v 58.002327 -197.389648 -15.846076
v 58.002327 -197.389648 -15.846076
v 23.618328 -197.389648 -15.904498
v 57.976845 -197.389648 -0.848994
v 23.592846 -197.389648 -0.907418
v 57.976845 -186.971771 -0.848994
v 23.592846 -197.389648 -0.907418
v 57.976845 -197.389648 -0.848994
v 23.592846 -186.971771 -0.907418
v 23.592846 -186.971771 -0.907418
v 57.976845 -186.971771 -0.848994
v 23.592846 -197.389648 -0.907418
v 57.976845 -197.389648 -0.848994
vn 0.0017 0.0000 -1.0000
vn -1.0000 0.0000 -0.0017
vn 0.0000 1.0000 0.0000
vn 1.0000 0.0000 0.0017
vn 0.0000 -1.0000 0.0000
vn -0.0017 0.0000 1.0000
usemtl (null)
s off
f 133//17 134//17 135//17
f 134//17 133//17 136//17
f 141//18 142//18 143//18
f 142//18 141//18 144//18
f 149//19 150//19 151//19
f 150//19 149//19 152//19
f 157//20 158//20 159//20
f 158//20 157//20 160//20
f 165//21 166//21 167//21
f 166//21 165//21 168//21
f 173//22 174//22 175//22
f 174//22 173//22 176//22
f 137//22 138//22 139//22
f 140//22 139//22 138//22
f 145//20 146//20 147//20
f 148//20 147//20 146//20
f 153//21 154//21 155//21
f 156//21 155//21 154//21
f 161//18 162//18 163//18
f 164//18 163//18 162//18
f 169//19 170//19 171//19
f 172//19 171//19 170//19
f 177//17 178//17 179//17
f 180//17 179//17 178//17
o instance_0.003_ID26
v 33.985840 -197.562408 -0.889759
v 23.593466 -197.562408 -15.904542
v 23.567984 -197.562408 -0.907460
v 34.011326 -197.562408 -15.886839
v 34.011326 -197.562408 -15.886839
v 33.985840 -197.562408 -0.889759
v 23.593466 -197.562408 -15.904542
v 23.567984 -197.562408 -0.907460
vn 0.0000 1.0000 0.0000
vn 0.0000 -1.0000 0.0000
usemtl (null)
s off
f 181//23 182//23 183//23
f 182//23 181//23 184//23
f 185//24 186//24 187//24
f 188//24 187//24 186//24
o instance_0.004_ID32
v 23.660791 -186.785797 -0.895302
v 23.686274 -186.785797 -15.892384
l 190 189
