# Aspose.3D Wavefront OBJ Exporter
# Copyright 2004-2021 Aspose Pty Ltd.
# File created: 07/08/2021 12:54:10

mtllib material.lib

#
# object Robot
#

v 23.61832719999999952 15.89249859999999968 -131.99290089999999504
v 58.00232880000000079 15.8340751999999992 -142.41077459999999632
v 23.61832719999999952 15.89249859999999968 -142.41077459999999632
v 58.00232880000000079 15.8340751999999992 -131.99290089999999504
v 58.00232880000000079 15.8340751999999992 -131.99290089999999504
v 23.61832719999999952 15.89249859999999968 -131.99290089999999504
v 58.00232880000000079 15.8340751999999992 -142.41077459999999632
v 23.61832719999999952 15.89249859999999968 -142.41077459999999632
v 23.61832719999999952 15.89249859999999968 -131.99290089999999504
v 23.59284500000000048 0.8954175 -142.41077459999999632
v 23.59284500000000048 0.8954175 -131.99290089999999504
v 23.61832719999999952 15.89249859999999968 -142.41077459999999632
v 23.61832719999999952 15.89249859999999968 -142.41077459999999632
v 23.61832719999999952 15.89249859999999968 -131.99290089999999504
v 23.59284500000000048 0.8954175 -142.41077459999999632
v 23.59284500000000048 0.8954175 -131.99290089999999504
v 57.97684660000000176 0.8369941 -131.99290089999999504
v 23.61832719999999952 15.89249859999999968 -131.99290089999999504
v 23.59284500000000048 0.8954175 -131.99290089999999504
v 58.00232880000000079 15.8340751999999992 -131.99290089999999504
v 58.00232880000000079 15.8340751999999992 -131.99290089999999504
v 57.97684660000000176 0.8369941 -131.99290089999999504
v 23.61832719999999952 15.89249859999999968 -131.99290089999999504
v 23.59284500000000048 0.8954175 -131.99290089999999504
v 58.00232880000000079 15.8340751999999992 -142.41077459999999632
v 57.97684660000000176 0.8369941 -131.99290089999999504
v 57.97684660000000176 0.8369941 -142.41077459999999632
v 58.00232880000000079 15.8340751999999992 -131.99290089999999504
v 58.00232880000000079 15.8340751999999992 -131.99290089999999504
v 58.00232880000000079 15.8340751999999992 -142.41077459999999632
v 57.97684660000000176 0.8369941 -131.99290089999999504
v 57.97684660000000176 0.8369941 -142.41077459999999632
v 23.61832719999999952 15.89249859999999968 -142.41077459999999632
v 57.97684660000000176 0.8369941 -142.41077459999999632
v 23.59284500000000048 0.8954175 -142.41077459999999632
v 58.00232880000000079 15.8340751999999992 -142.41077459999999632
v 58.00232880000000079 15.8340751999999992 -142.41077459999999632
v 23.61832719999999952 15.89249859999999968 -142.41077459999999632
v 57.97684660000000176 0.8369941 -142.41077459999999632
v 23.59284500000000048 0.8954175 -142.41077459999999632
v 57.97684660000000176 0.8369941 -131.99290089999999504
v 23.59284500000000048 0.8954175 -142.41077459999999632
v 57.97684660000000176 0.8369941 -142.41077459999999632
v 23.59284500000000048 0.8954175 -131.99290089999999504
v 23.59284500000000048 0.8954175 -131.99290089999999504
v 57.97684660000000176 0.8369941 -131.99290089999999504
v 23.59284500000000048 0.8954175 -142.41077459999999632
v 57.97684660000000176 0.8369941 -142.41077459999999632
# 48 vertices

vn 0.0016991 0.9999986 0
vn 0.0016991 0.9999986 0
vn 0.0016991 0.9999986 0
vn 0.0016991 0.9999986 0
vn -0.0016991 -0.9999986 0
vn -0.0016991 -0.9999986 0
vn -0.0016991 -0.9999986 0
vn -0.0016991 -0.9999986 0
vn -0.9999986 0.0016991 0
vn -0.9999986 0.0016991 0
vn -0.9999986 0.0016991 0
vn -0.9999986 0.0016991 0
vn 0.9999986 -0.0016991 0
vn 0.9999986 -0.0016991 0
vn 0.9999986 -0.0016991 0
vn 0.9999986 -0.0016991 0
vn 0 0 1
vn 0 0 1
vn 0 0 1
vn 0 0 1
vn 0 0 -1
vn 0 0 -1
vn 0 0 -1
vn 0 0 -1
vn 0.9999986 -0.0016991 0
vn 0.9999986 -0.0016991 0
vn 0.9999986 -0.0016991 0
vn 0.9999986 -0.0016991 0
vn -0.9999986 0.0016991 0
vn -0.9999986 0.0016991 0
vn -0.9999986 0.0016991 0
vn -0.9999986 0.0016991 0
vn 0 0 -1
vn 0 0 -1
vn 0 0 -1
vn 0 0 -1
vn 0 0 1
vn 0 0 1
vn 0 0 1
vn 0 0 1
vn -0.0016991 -0.9999986 0
vn -0.0016991 -0.9999986 0
vn -0.0016991 -0.9999986 0
vn -0.0016991 -0.9999986 0
vn 0.0016991 0.9999986 0
vn 0.0016991 0.9999986 0
vn 0.0016991 0.9999986 0
vn 0.0016991 0.9999986 0
# 48 vertex normals

g Robot
usemtl material_1
s 1
f 1//1 2//2 3//3
f 2//2 1//1 4//4
f 9//9 10//10 11//11
f 10//10 9//9 12//12
f 17//17 18//18 19//19
f 18//18 17//17 20//20
f 25//25 26//26 27//27
f 26//26 25//25 28//28
f 33//33 34//34 35//35
f 34//34 33//33 36//36
f 41//41 42//42 43//43
f 42//42 41//41 44//44
f 5//5 6//6 7//7
f 8//8 7//7 6//6
f 13//13 14//14 15//15
f 16//16 15//15 14//14
f 21//21 22//22 23//23
f 24//24 23//23 22//22
f 29//29 30//30 31//31
f 32//32 31//31 30//30
f 37//37 38//38 39//39
f 40//40 39//39 38//38
f 45//45 46//46 47//47
f 48//48 47//47 46//46
#24 polygons


#
# object Robot-2
#

v 33.9227038000000008 15.87498999999999856 -186.90509119999998688
v 33.89722160000000176 0.8779089 -186.78579099999998896
v 33.89722160000000176 0.8779089 -186.90509119999998688
v 33.9227038000000008 15.87498999999999856 -186.78579099999998896
v 33.9227038000000008 15.87498999999999856 -186.78579099999998896
v 33.9227038000000008 15.87498999999999856 -186.90509119999998688
v 33.89722160000000176 0.8779089 -186.78579099999998896
v 33.89722160000000176 0.8779089 -186.90509119999998688
v 33.89722160000000176 0.8779089 -186.78579099999998896
v 23.66078940000000232 0.8953021 -186.90509119999998688
v 33.89722160000000176 0.8779089 -186.90509119999998688
v 23.66078940000000232 0.8953021 -186.78579099999998896
v 23.66078940000000232 0.8953021 -186.78579099999998896
v 33.89722160000000176 0.8779089 -186.78579099999998896
v 23.66078940000000232 0.8953021 -186.90509119999998688
v 33.89722160000000176 0.8779089 -186.90509119999998688
v 23.59346419999999968 15.89254090000000016 -186.90509119999998688
v 23.66078940000000232 0.8953021 -186.90509119999998688
v 23.56798200000000064 0.8954598 -186.90509119999998688
v 23.68627169999999896 15.89238319999999936 -186.90509119999998688
v 33.89722160000000176 0.8779089 -186.90509119999998688
v 33.9227038000000008 15.87498999999999856 -186.90509119999998688
v 33.9227038000000008 15.87498999999999856 -186.90509119999998688
v 23.68627169999999896 15.89238319999999936 -186.90509119999998688
v 33.89722160000000176 0.8779089 -186.90509119999998688
v 23.66078940000000232 0.8953021 -186.90509119999998688
v 23.59346419999999968 15.89254090000000016 -186.90509119999998688
v 23.56798200000000064 0.8954598 -186.90509119999998688
v 23.68627169999999896 15.89238319999999936 -186.78579099999998896
v 33.9227038000000008 15.87498999999999856 -186.90509119999998688
v 23.68627169999999896 15.89238319999999936 -186.90509119999998688
v 33.9227038000000008 15.87498999999999856 -186.78579099999998896
v 33.9227038000000008 15.87498999999999856 -186.78579099999998896
v 23.68627169999999896 15.89238319999999936 -186.78579099999998896
v 33.9227038000000008 15.87498999999999856 -186.90509119999998688
v 23.68627169999999896 15.89238319999999936 -186.90509119999998688
v 33.89722160000000176 0.8779089 -186.78579099999998896
v 34.01132290000000324 15.87483939999999904 -142.58353999999997088
v 33.98584069999999712 0.8777583 -142.58353999999997088
v 33.9227038000000008 15.87498999999999856 -186.78579099999998896
v 33.9227038000000008 15.87498999999999856 -186.78579099999998896
v 33.89722160000000176 0.8779089 -186.78579099999998896
v 34.01132290000000324 15.87483939999999904 -142.58353999999997088
v 33.98584069999999712 0.8777583 -142.58353999999997088
v 33.98584069999999712 0.8777583 -142.58353999999997088
v 23.66078940000000232 0.8953021 -186.78579099999998896
v 33.89722160000000176 0.8779089 -186.78579099999998896
v 23.56798200000000064 0.8954598 -186.90509119999998688
v 23.66078940000000232 0.8953021 -186.90509119999998688
v 23.56798200000000064 0.8954598 -142.58353999999997088
v 33.98584069999999712 0.8777583 -142.58353999999997088
v 23.66078940000000232 0.8953021 -186.78579099999998896
v 23.56798200000000064 0.8954598 -142.58353999999997088
v 23.56798200000000064 0.8954598 -186.90509119999998688
v 23.66078940000000232 0.8953021 -186.90509119999998688
v 33.89722160000000176 0.8779089 -186.78579099999998896
v 23.59346419999999968 15.89254090000000016 -142.58353999999997088
v 23.56798200000000064 0.8954598 -186.90509119999998688
v 23.56798200000000064 0.8954598 -142.58353999999997088
v 23.59346419999999968 15.89254090000000016 -186.90509119999998688
v 23.59346419999999968 15.89254090000000016 -186.90509119999998688
v 23.59346419999999968 15.89254090000000016 -142.58353999999997088
v 23.56798200000000064 0.8954598 -186.90509119999998688
v 23.56798200000000064 0.8954598 -142.58353999999997088
v 23.59346419999999968 15.89254090000000016 -142.58353999999997088
v 23.68627169999999896 15.89238319999999936 -186.90509119999998688
v 23.59346419999999968 15.89254090000000016 -186.90509119999998688
v 23.68627169999999896 15.89238319999999936 -186.78579099999998896
v 33.9227038000000008 15.87498999999999856 -186.78579099999998896
v 34.01132290000000324 15.87483939999999904 -142.58353999999997088
v 34.01132290000000324 15.87483939999999904 -142.58353999999997088
v 23.59346419999999968 15.89254090000000016 -142.58353999999997088
v 33.9227038000000008 15.87498999999999856 -186.78579099999998896
v 23.68627169999999896 15.89238319999999936 -186.78579099999998896
v 23.68627169999999896 15.89238319999999936 -186.90509119999998688
v 23.59346419999999968 15.89254090000000016 -186.90509119999998688
v 33.98584069999999712 0.8777583 -142.58353999999997088
v 23.59346419999999968 15.89254090000000016 -142.58353999999997088
v 23.56798200000000064 0.8954598 -142.58353999999997088
v 34.01132290000000324 15.87483939999999904 -142.58353999999997088
v 34.01132290000000324 15.87483939999999904 -142.58353999999997088
v 33.98584069999999712 0.8777583 -142.58353999999997088
v 23.59346419999999968 15.89254090000000016 -142.58353999999997088
v 23.56798200000000064 0.8954598 -142.58353999999997088
# 84 vertices

vn 0.9999986 -0.0016991 0
vn 0.9999986 -0.0016991 0
vn 0.9999986 -0.0016991 0
vn 0.9999986 -0.0016991 0
vn -0.9999986 0.0016991 0
vn -0.9999986 0.0016991 0
vn -0.9999986 0.0016991 0
vn -0.9999986 0.0016991 0
vn -0.0016991 -0.9999986 0
vn -0.0016991 -0.9999986 0
vn -0.0016991 -0.9999986 0
vn -0.0016991 -0.9999986 0
vn 0.0016991 0.9999986 0
vn 0.0016991 0.9999986 0
vn 0.0016991 0.9999986 0
vn 0.0016991 0.9999986 0
vn 0 0 -1
vn 0 0 -1
vn 0 0 -1
vn 0 0 -1
vn 0 0 -1
vn 0 0 -1
vn 0 0 1
vn 0 0 1
vn 0 0 1
vn 0 0 1
vn 0 0 1
vn 0 0 1
vn 0.0016991 0.9999986 0
vn 0.0016991 0.9999986 0
vn 0.0016991 0.9999986 0
vn 0.0016991 0.9999986 0
vn -0.0016991 -0.9999986 0
vn -0.0016991 -0.9999986 0
vn -0.0016991 -0.9999986 0
vn -0.0016991 -0.9999986 0
vn 0.9999965 -0.0016991 -0.0020049
vn 0.9999965 -0.0016991 -0.0020049
vn 0.9999965 -0.0016991 -0.0020049
vn 0.9999965 -0.0016991 -0.0020049
vn -0.9999965 0.0016991 0.0020049
vn -0.9999965 0.0016991 0.0020049
vn -0.9999965 0.0016991 0.0020049
vn -0.9999965 0.0016991 0.0020049
vn -0.0016991 -0.9999986 0
vn -0.0016991 -0.9999986 0
vn -0.0016991 -0.9999986 0
vn -0.0016991 -0.9999986 0
vn -0.0016991 -0.9999986 0
vn -0.0016991 -0.9999986 0
vn 0.0016991 0.9999986 0
vn 0.0016991 0.9999986 0
vn 0.0016991 0.9999986 0
vn 0.0016991 0.9999986 0
vn 0.0016991 0.9999986 0
vn 0.0016991 0.9999986 0
vn -0.9999986 0.0016991 0
vn -0.9999986 0.0016991 0
vn -0.9999986 0.0016991 0
vn -0.9999986 0.0016991 0
vn 0.9999986 -0.0016991 0
vn 0.9999986 -0.0016991 0
vn 0.9999986 -0.0016991 0
vn 0.9999986 -0.0016991 0
vn 0.0016991 0.9999986 0
vn 0.0016991 0.9999986 0
vn 0.0016991 0.9999986 0
vn 0.0016991 0.9999986 0
vn 0.0016991 0.9999986 0
vn 0.0016991 0.9999986 0
vn -0.0016991 -0.9999986 0
vn -0.0016991 -0.9999986 0
vn -0.0016991 -0.9999986 0
vn -0.0016991 -0.9999986 0
vn -0.0016991 -0.9999986 0
vn -0.0016991 -0.9999986 0
vn 0 0 1
vn 0 0 1
vn 0 0 1
vn 0 0 1
vn 0 0 -1
vn 0 0 -1
vn 0 0 -1
vn 0 0 -1
# 84 vertex normals

g Robot-2
usemtl material_1
s 2
f 49//49 50//50 51//51
f 50//50 49//49 52//52
f 57//57 58//58 59//59
f 58//58 57//57 60//60
f 65//65 66//66 67//67
f 66//66 65//65 68//68
f 66//66 68//68 69//69
f 69//69 68//68 70//70
f 77//77 78//78 79//79
f 78//78 77//77 80//80
f 85//85 86//86 87//87
f 86//86 85//85 88//88
f 93//93 94//94 95//95
f 94//94 96//96 97//97
f 96//96 94//94 98//98
f 98//98 94//94 93//93
f 105//105 106//106 107//107
f 106//106 105//105 108//108
f 113//113 114//114 115//115
f 114//114 113//113 116//116
f 116//116 113//113 117//117
f 117//117 113//113 118//118
f 125//125 126//126 127//127
f 126//126 125//125 128//128
f 53//53 54//54 55//55
f 56//56 55//55 54//54
f 61//61 62//62 63//63
f 64//64 63//63 62//62
f 71//71 72//72 73//73
f 73//73 72//72 74//74
f 72//72 75//75 74//74
f 76//76 74//74 75//75
f 81//81 82//82 83//83
f 84//84 83//83 82//82
f 89//89 90//90 91//91
f 92//92 91//91 90//90
f 99//99 100//100 101//101
f 101//101 100//100 102//102
f 103//103 102//102 100//100
f 104//104 100//100 99//99
f 109//109 110//110 111//111
f 112//112 111//111 110//110
f 119//119 120//120 121//121
f 121//121 120//120 122//122
f 122//122 120//120 123//123
f 124//124 123//123 120//120
f 129//129 130//130 131//131
f 132//132 131//131 130//130
#48 polygons


#
# object Robot-3
#

v 23.61832719999999952 15.90449879999999888 -186.97176929999997696
v 58.00232880000000079 15.84607540000000016 -197.38964299999997824
v 23.61832719999999952 15.90449879999999888 -197.38964299999997824
v 58.00232880000000079 15.84607540000000016 -186.97176929999997696
v 58.00232880000000079 15.84607540000000016 -186.97176929999997696
v 23.61832719999999952 15.90449879999999888 -186.97176929999997696
v 58.00232880000000079 15.84607540000000016 -197.38964299999997824
v 23.61832719999999952 15.90449879999999888 -197.38964299999997824
v 23.61832719999999952 15.90449879999999888 -186.97176929999997696
v 23.59284500000000048 0.9074177 -197.38964299999997824
v 23.59284500000000048 0.9074177 -186.97176929999997696
v 23.61832719999999952 15.90449879999999888 -197.38964299999997824
v 23.61832719999999952 15.90449879999999888 -197.38964299999997824
v 23.61832719999999952 15.90449879999999888 -186.97176929999997696
v 23.59284500000000048 0.9074177 -197.38964299999997824
v 23.59284500000000048 0.9074177 -186.97176929999997696
v 57.97684660000000176 0.8489943 -186.97176929999997696
v 23.61832719999999952 15.90449879999999888 -186.97176929999997696
v 23.59284500000000048 0.9074177 -186.97176929999997696
v 58.00232880000000079 15.84607540000000016 -186.97176929999997696
v 58.00232880000000079 15.84607540000000016 -186.97176929999997696
v 57.97684660000000176 0.8489943 -186.97176929999997696
v 23.61832719999999952 15.90449879999999888 -186.97176929999997696
v 23.59284500000000048 0.9074177 -186.97176929999997696
v 58.00232880000000079 15.84607540000000016 -197.38964299999997824
v 57.97684660000000176 0.8489943 -186.97176929999997696
v 57.97684660000000176 0.8489943 -197.38964299999997824
v 58.00232880000000079 15.84607540000000016 -186.97176929999997696
v 58.00232880000000079 15.84607540000000016 -186.97176929999997696
v 58.00232880000000079 15.84607540000000016 -197.38964299999997824
v 57.97684660000000176 0.8489943 -186.97176929999997696
v 57.97684660000000176 0.8489943 -197.38964299999997824
v 23.61832719999999952 15.90449879999999888 -197.38964299999997824
v 57.97684660000000176 0.8489943 -197.38964299999997824
v 23.59284500000000048 0.9074177 -197.38964299999997824
v 58.00232880000000079 15.84607540000000016 -197.38964299999997824
v 58.00232880000000079 15.84607540000000016 -197.38964299999997824
v 23.61832719999999952 15.90449879999999888 -197.38964299999997824
v 57.97684660000000176 0.8489943 -197.38964299999997824
v 23.59284500000000048 0.9074177 -197.38964299999997824
v 57.97684660000000176 0.8489943 -186.97176929999997696
v 23.59284500000000048 0.9074177 -197.38964299999997824
v 57.97684660000000176 0.8489943 -197.38964299999997824
v 23.59284500000000048 0.9074177 -186.97176929999997696
v 23.59284500000000048 0.9074177 -186.97176929999997696
v 57.97684660000000176 0.8489943 -186.97176929999997696
v 23.59284500000000048 0.9074177 -197.38964299999997824
v 57.97684660000000176 0.8489943 -197.38964299999997824
# 48 vertices

vn 0.0016991 0.9999986 0
vn 0.0016991 0.9999986 0
vn 0.0016991 0.9999986 0
vn 0.0016991 0.9999986 0
vn -0.0016991 -0.9999986 0
vn -0.0016991 -0.9999986 0
vn -0.0016991 -0.9999986 0
vn -0.0016991 -0.9999986 0
vn -0.9999986 0.0016991 0
vn -0.9999986 0.0016991 0
vn -0.9999986 0.0016991 0
vn -0.9999986 0.0016991 0
vn 0.9999986 -0.0016991 0
vn 0.9999986 -0.0016991 0
vn 0.9999986 -0.0016991 0
vn 0.9999986 -0.0016991 0
vn 0 0 1
vn 0 0 1
vn 0 0 1
vn 0 0 1
vn 0 0 -1
vn 0 0 -1
vn 0 0 -1
vn 0 0 -1
vn 0.9999986 -0.0016991 0
vn 0.9999986 -0.0016991 0
vn 0.9999986 -0.0016991 0
vn 0.9999986 -0.0016991 0
vn -0.9999986 0.0016991 0
vn -0.9999986 0.0016991 0
vn -0.9999986 0.0016991 0
vn -0.9999986 0.0016991 0
vn 0 0 -1
vn 0 0 -1
vn 0 0 -1
vn 0 0 -1
vn 0 0 1
vn 0 0 1
vn 0 0 1
vn 0 0 1
vn -0.0016991 -0.9999986 0
vn -0.0016991 -0.9999986 0
vn -0.0016991 -0.9999986 0
vn -0.0016991 -0.9999986 0
vn 0.0016991 0.9999986 0
vn 0.0016991 0.9999986 0
vn 0.0016991 0.9999986 0
vn 0.0016991 0.9999986 0
# 48 vertex normals

g Robot-3
usemtl material_1
s 4
f 133//133 134//134 135//135
f 134//134 133//133 136//136
f 141//141 142//142 143//143
f 142//142 141//141 144//144
f 149//149 150//150 151//151
f 150//150 149//149 152//152
f 157//157 158//158 159//159
f 158//158 157//157 160//160
f 165//165 166//166 167//167
f 166//166 165//165 168//168
f 173//173 174//174 175//175
f 174//174 173//173 176//176
f 137//137 138//138 139//139
f 140//140 139//139 138//138
f 145//145 146//146 147//147
f 148//148 147//147 146//146
f 153//153 154//154 155//155
f 156//156 155//155 154//154
f 161//161 162//162 163//163
f 164//164 163//163 162//162
f 169//169 170//170 171//171
f 172//172 171//171 170//170
f 177//177 178//178 179//179
f 180//180 179//179 178//178
#24 polygons


#
# object Robot-4
#

v 33.98584069999999712 0.8897585 -197.56240839999998112
v 23.59346419999999968 15.90454109999999936 -197.56240839999998112
v 23.56798200000000064 0.90746 -197.56240839999998112
v 34.01132290000000324 15.8868396 -197.56240839999998112
v 34.01132290000000324 15.8868396 -197.56240839999998112
v 33.98584069999999712 0.8897585 -197.56240839999998112
v 23.59346419999999968 15.90454109999999936 -197.56240839999998112
v 23.56798200000000064 0.90746 -197.56240839999998112
# 8 vertices

vn 0 0 1
vn 0 0 1
vn 0 0 1
vn 0 0 1
vn 0 0 -1
vn 0 0 -1
vn 0 0 -1
vn 0 0 -1
# 8 vertex normals

g Robot-4
usemtl material_1
s 8
f 181//181 182//182 183//183
f 182//182 181//181 184//184
f 185//185 186//186 187//187
f 188//188 187//187 186//186
#4 polygons

