# Blender v2.93.1 OBJ File: ''
# www.blender.org
mtllib car2_planar_robot_blender.mtl
o instance_0_ID3.001
v 2.010000 -1.000000 0.000000
v 0.010000 -2.000000 7.874020
v 0.010000 -2.000000 0.000000
v 2.010000 -1.000000 7.874020
v 2.010000 -1.000000 7.874020
v 2.010000 -1.000000 0.000000
v 0.010000 -2.000000 7.874020
v 0.010000 -2.000000 0.000000
v 2.010000 -1.000000 0.000000
v 0.010000 -2.000000 0.000000
v -1.990000 -2.000000 0.000000
v -1.990000 -2.000000 0.000000
v 0.010000 -2.000000 0.000000
v 2.010000 -1.000000 0.000000
v 2.010000 -1.000000 7.874020
v -1.990000 -2.000000 0.000000
v -1.990000 -2.000000 7.874020
v 2.010000 -1.000000 0.000000
v 2.010000 -1.000000 0.000000
v 2.010000 -1.000000 7.874020
v -1.990000 -2.000000 0.000000
v -1.990000 -2.000000 7.874020
v 2.010000 -1.000000 0.000000
v 2.010000 1.000000 7.874020
v 2.010000 -1.000000 7.874020
v 2.010000 1.000000 0.000000
v 2.010000 1.000000 0.000000
v 2.010000 -1.000000 0.000000
v 2.010000 1.000000 7.874020
v 2.010000 -1.000000 7.874020
v 2.010000 -1.000000 7.874020
v -1.990000 -2.000000 7.874020
v 0.010000 -2.000000 7.874020
v 0.010000 -2.000000 7.874020
v -1.990000 -2.000000 7.874020
v 2.010000 -1.000000 7.874020
v 0.010000 -2.000000 0.000000
v -1.990000 -2.000000 7.874020
v -1.990000 -2.000000 0.000000
v 0.010000 -2.000000 7.874020
v 0.010000 -2.000000 7.874020
v 0.010000 -2.000000 0.000000
v -1.990000 -2.000000 7.874020
v -1.990000 -2.000000 0.000000
v -1.990000 2.000000 7.874020
v 2.010000 1.000000 7.874020
v 0.010000 2.000000 7.874020
v 0.010000 2.000000 7.874020
v 2.010000 1.000000 7.874020
v -1.990000 2.000000 7.874020
v -1.990000 2.000000 0.000000
v -1.990000 -2.000000 7.874020
v -1.990000 2.000000 7.874020
v -1.990000 -2.000000 0.000000
v -1.990000 -2.000000 0.000000
v -1.990000 2.000000 0.000000
v -1.990000 -2.000000 7.874020
v -1.990000 2.000000 7.874020
v 2.010000 1.000000 7.874020
v 0.010000 2.000000 0.000000
v 0.010000 2.000000 7.874020
v 2.010000 1.000000 0.000000
v 2.010000 1.000000 0.000000
v 2.010000 1.000000 7.874020
v 0.010000 2.000000 0.000000
v 0.010000 2.000000 7.874020
v 0.010000 2.000000 7.874020
v -1.990000 2.000000 0.000000
v -1.990000 2.000000 7.874020
v 0.010000 2.000000 0.000000
v 0.010000 2.000000 0.000000
v 0.010000 2.000000 7.874020
v -1.990000 2.000000 0.000000
v -1.990000 2.000000 7.874020
v 0.010000 2.000000 0.000000
v 2.010000 1.000000 0.000000
v -1.990000 2.000000 0.000000
v -1.990000 2.000000 0.000000
v 2.010000 1.000000 0.000000
v 0.010000 2.000000 0.000000
vn 0.4472 -0.8944 0.0000
vn -0.4472 0.8944 0.0000
vn 0.0000 0.0000 -1.0000
vn 0.0000 0.0000 1.0000
vn -0.2425 0.9701 0.0000
vn 0.2425 -0.9701 0.0000
vn 1.0000 0.0000 0.0000
vn -1.0000 0.0000 0.0000
vn 0.0000 -1.0000 0.0000
vn 0.0000 1.0000 0.0000
vn 0.4472 0.8944 0.0000
vn -0.4472 -0.8944 0.0000
usemtl material_0.002
s off
f 1//1 2//1 3//1
f 2//1 1//1 4//1
f 5//2 6//2 7//2
f 8//2 7//2 6//2
f 9//3 10//3 11//3
f 12//4 13//4 14//4
f 15//5 16//5 17//5
f 16//5 15//5 18//5
f 19//6 20//6 21//6
f 22//6 21//6 20//6
f 23//7 24//7 25//7
f 24//7 23//7 26//7
f 27//8 28//8 29//8
f 30//8 29//8 28//8
f 31//4 32//4 33//4
f 34//3 35//3 36//3
f 37//9 38//9 39//9
f 38//9 37//9 40//9
f 41//10 42//10 43//10
f 44//10 43//10 42//10
f 31//4 45//4 32//4
f 45//4 31//4 46//4
f 45//4 46//4 47//4
f 48//3 49//3 50//3
f 49//3 36//3 50//3
f 35//3 50//3 36//3
f 51//8 52//8 53//8
f 52//8 51//8 54//8
f 55//7 56//7 57//7
f 58//7 57//7 56//7
f 59//11 60//11 61//11
f 60//11 59//11 62//11
f 63//12 64//12 65//12
f 66//12 65//12 64//12
f 67//10 68//10 69//10
f 68//10 67//10 70//10
f 71//9 72//9 73//9
f 74//9 73//9 72//9
f 75//3 76//3 77//3
f 78//4 79//4 80//4
